<svg height="512pt" viewBox="0 0 512 512" width="512pt" xmlns="http://www.w3.org/2000/svg"><path d="m240 512h-192c-26.464844 0-48-21.535156-48-48v-416c0-26.464844 21.535156-48 48-48h192c26.464844 0 48 21.535156 48 48v416c0 26.464844-21.535156 48-48 48zm0 0" fill="#d7dee2"/><path d="m0 144h288v224h-288zm0 0" fill="#40a2e7"/><path d="m0 144v32h188.625l3.535156 13.761719-32.160156 19.039062v94.398438l32.160156 19.039062-9.28125 36.160157 9.601563 9.601562h95.519531v-224zm0 0" fill="#168de2"/><g fill="#fff"><path d="m128 64h96v32h-96zm0 0"/><path d="m64 64h32v32h-32zm0 0"/><path d="m128 424h32v32h-32zm0 0"/></g><path d="m240 480h-192c-26.464844 0-48-21.535156-48-48v32c0 26.464844 21.535156 48 48 48h192c26.464844 0 48-21.535156 48-48v-32c0 26.464844-21.535156 48-48 48zm0 0" fill="#bfc9d1"/><path d="m249.601562 86.878906-57.121093 57.121094h95.519531v-47.839844zm0 0" fill="#bfc9d1"/><path d="m249.601562 425.121094 38.398438-9.28125v-47.839844h-95.519531zm0 0" fill="#bfc9d1"/><path d="m512 285.007812v-58.015624l-27.886719-16.480469-6.511719-15.742188 8.0625-31.410156-41.023437-41.023437-31.410156 8.0625-15.742188-6.527344-16.496093-27.871094h-58l-16.480469 27.871094-15.742188 6.527344-31.410156-8.0625-41.007813 41.007812 8.0625 31.410156-6.511718 15.742188-27.902344 16.496094v58.015624l27.886719 16.480469 6.511719 15.742188-8.0625 31.410156 41.007812 41.007813 31.410156-8.0625 15.742188 6.527343 16.496094 27.886719h58l16.480468-27.871094 15.742188-6.527344 31.410156 8.046876 41.007812-41.007813-8.066406-31.410156 6.511719-15.742188zm-160 18.992188c-26.511719 0-48-21.488281-48-48s21.488281-48 48-48 48 21.488281 48 48-21.488281 48-48 48zm0 0" fill="#ffcb5a"/><path d="m352 176c-44.175781 0-80 35.824219-80 80s35.824219 80 80 80 80-35.824219 80-80-35.824219-80-80-80zm0 128c-26.511719 0-48-21.488281-48-48s21.488281-48 48-48 48 21.488281 48 48-21.488281 48-48 48zm0 0" fill="#b0b4b9"/></svg>