<?xml version="1.0"?>
<svg xmlns="http://www.w3.org/2000/svg" viewBox="0 0 64 64" width="512" height="512"><circle cx="32" cy="32" fill="#91e8e3" r="25"/><path d="m3 44 5 6 18-16 5 5 25-25 5 5v-15h-15l5 5-20 20-5-5z" fill="#ef5656"/><path d="m32 57a24.996 24.996 0 0 0 17.81366-42.535l-36.25507 34.41159a24.93222 24.93222 0 0 0 18.44141 8.12341z" fill="#5facf9"/><path d="m25 50h4a2 2 0 0 0 2-2v-2a2 2 0 0 0 -2-2 2 2 0 0 1 -2-2 2 2 0 0 0 -2-2h-5.75l-7.49408 6.66144a25.13319 25.13319 0 0 0 8.48016 7.39313l.76392-.05457a4 4 0 0 1 4-4z" fill="#8eed51"/><path d="m31 13.5a1.5 1.5 0 0 1 1.5-1.5h4a1.5 1.5 0 0 0 1.5-1.5v-2.75952a24.94866 24.94866 0 0 0 -27.93457 12.25952h8.43457a1.5 1.5 0 0 0 1.5-1.5v-3a1.5 1.5 0 0 1 1.5-1.5h1a1.5 1.5 0 0 1 1.5 1.5 1.5 1.5 0 0 0 1.5 1.5h4a1.5 1.5 0 0 0 1.5-1.5z" fill="#8eed51"/><path d="m15.5 24h-7.18457a24.91133 24.91133 0 0 0 -1.29016 7h4.47473a1.5 1.5 0 0 0 1.5-1.5 1.5 1.5 0 0 1 1.5-1.5h1a1.5 1.5 0 0 0 1.5-1.5v-1a1.5 1.5 0 0 0 -1.5-1.5z" fill="#8eed51"/><path d="m16.66241 51.73248.00428.0033q.55425.43093 1.13305.83087l.01764.01215q.57863.39934 1.18024.767l.003.00189q.60672.37023 1.23541.70685l.76397-.05454a4 4 0 0 1 4-4h4a2 2 0 0 0 2-2v-2a2 2 0 0 0 -2-2 2 2 0 0 1 -2-2 2 2 0 0 0 -2-2h-2.08929l-9.34815 8.87286a25.14125 25.14125 0 0 0 3.09985 2.85962z" fill="#59bc19"/><path d="m55 57h2v2h-2z" fill="#efd725"/><path d="m60 60h2v2h-2z" fill="#efd725"/><path d="m58 52h2v2h-2z" fill="#efd725"/><path d="m50 60h2v2h-2z" fill="#efd725"/><path d="m60 46h2v2h-2z" fill="#efd725"/><g fill="#fff364"><path d="m2 2h2v2h-2z"/><path d="m7 4h2v2h-2z"/><path d="m3 8h2v2h-2z"/><path d="m13 2h2v2h-2z"/><path d="m7 10h2v2h-2z"/><path d="m2 14h2v2h-2z"/></g><path d="m37.5 44a1.5 1.5 0 0 0 0 3h2.5a2 2 0 0 1 0 4h-3a5.9991 5.9991 0 0 0 -5.99847 5.96954c.33209.01313.66314.03046.99847.03046a24.99244 24.99244 0 0 0 21.93451-13z" fill="#59bc19"/><path d="m55.68878 24-.00006-.00012c-.11468-.339-.251-.66754-.37976-.99988h-8.30896l-4 4h4.5a2.5 2.5 0 0 1 0 5h-3.5a2 2 0 0 0 0 4h12.67749a25.02948 25.02948 0 0 0 -.98871-12z" fill="#59bc19"/><path d="m31 39 25-25 5 5v-15h-.316l-33.171 31.513z" fill="#e54141"/></svg>
